<?xml version="1.0" encoding="UTF-8" standalone="no"?>
<svg width="15px" height="15px" viewBox="0 0 15 15" version="1.1" xmlns="http://www.w3.org/2000/svg" xmlns:xlink="http://www.w3.org/1999/xlink">
    <!-- Generator: Sketch 3.7.2 (28276) - http://www.bohemiancoding.com/sketch -->
    <title>lilac-15</title>
    <desc>Created with Sketch.</desc>
    <defs></defs>
    <g id="Page-1" stroke="none" stroke-width="1" fill="none" fill-rule="evenodd">
        <g id="lilac-15">
            <g id="Group">
                <path d="M7.5,0 C10,1 11,3 10,5 C12,4 14,5 15,7.5 C14,10 12,11 10,10 C11,12 10,14 7.5,15 C5,14 4,12 5,10 C3,11 1,10 2.74326339e-10,7.5 C1,5 3.00000007,4 5,5 C4.00000007,3 5,1 7.5,0 Z" id="outline" fill="#FFFFFF"></path>
                <path d="M7.56471252,0.457176232 C6.0280073,1.00000002 4.00000007,3.00000002 6.06817784,6.04010668 C3.00000007,4.00000002 1.00000003,6.01377776 0.555207041,7.53423415 C1.00000003,9.02098944 3.00000003,11 6.02800746,9.02098953 C4.00000003,12 6.0280073,14 7.51310788,14.5113927 C8.99999979,14 10.9999998,12 9.0946473,9.10238345 C11.9999998,11 13.9999998,9.02098944 14.5988919,7.52731341 C13.9999998,6.01377776 11.9999998,4.00000002 9.1375258,6.01377778 C10.9999998,3.00000002 8.99999979,1.00000002 7.56471252,0.457176232 Z M7.5,6 C7.5,6.5 6.5,7.5 6,7.5 C6.5,7.5 7.5,8.5 7.5,9 C7.5,8.5 8.5,7.5 9,7.5 C8.5,7.5 7.5,6.5 7.5,6 Z" id="fill" fill="#000000"></path>
            </g>
        </g>
    </g>
</svg>