<?xml version="1.0" encoding="UTF-8" standalone="no"?>
<svg width="21px" height="21px" viewBox="0 0 21 21" version="1.1" xmlns="http://www.w3.org/2000/svg" xmlns:xlink="http://www.w3.org/1999/xlink">
    <!-- Generator: Sketch 3.7.2 (28276) - http://www.bohemiancoding.com/sketch -->
    <title>lilac-x-21</title>
    <desc>Created with Sketch.</desc>
    <defs></defs>
    <g id="Page-1" stroke="none" stroke-width="1" fill="none" fill-rule="evenodd">
        <g id="lilac-x-21">
            <g id="Group" transform="translate(10.500000, 10.500000) rotate(-315.000000) translate(-10.500000, -10.500000) translate(-2.000000, -2.000000)">
                <path d="M12.5,1.77635684e-15 C16.6666667,1.66666667 18.3333333,5 16.6666667,8.33333333 C20,6.66666667 23.3333333,8.33333333 25,12.5 C23.3333333,16.6666667 20,18.3333333 16.6666667,16.6666667 C18.3333333,20 16.6666667,23.3333333 12.5,25 C8.33333333,23.3333333 6.66666667,20 8.33333333,16.6666667 C5,18.3333333 1.66666667,16.6666667 4.57208493e-10,12.5 C1.66666667,8.33333333 5.00000011,6.66666667 8.33333333,8.33333333 C6.66666678,5 8.33333333,1.66666667 12.5,1.77635684e-15 Z" id="outline" fill="#FFFFFF"></path>
                <path d="M12.6078542,0.761960387 C10.0466788,1.66666671 6.66666679,5.00000004 10.1136297,10.0668445 C5.00000012,6.66666671 1.66666671,10.0229629 0.925345069,12.5570569 C1.66666671,15.0349824 5.00000005,18.3333334 10.0466791,15.0349826 C6.66666671,20 10.0466788,23.3333334 12.5218465,24.1856545 C14.9999996,23.3333334 18.333333,20 15.1577455,15.1706391 C19.9999996,18.3333334 23.333333,15.0349824 24.3314866,12.5455224 C23.333333,10.0229629 19.9999996,6.66666671 15.2292097,10.022963 C18.333333,5.00000004 14.9999996,1.66666671 12.6078542,0.761960387 Z M12.5,10 C12.5,10.8333333 10.8333333,12.5 10,12.5 C10.8333333,12.5 12.5,14.1666667 12.5,15 C12.5,14.1666667 14.1666667,12.5 15,12.5 C14.1666667,12.5 12.5,10.8333333 12.5,10 Z" id="fill" fill="#000000"></path>
            </g>
        </g>
    </g>
</svg>