<?xml version="1.0" encoding="UTF-8" standalone="no"?>
<svg width="15px" height="15px" viewBox="0 0 15 15" version="1.1" xmlns="http://www.w3.org/2000/svg" xmlns:xlink="http://www.w3.org/1999/xlink">
    <!-- Generator: Sketch 3.7.2 (28276) - http://www.bohemiancoding.com/sketch -->
    <title>lilac-x-15</title>
    <desc>Created with Sketch.</desc>
    <defs></defs>
    <g id="Page-1" stroke="none" stroke-width="1" fill="none" fill-rule="evenodd">
        <g id="lilac-x-15">
            <g id="Group" transform="translate(7.500000, 7.500000) rotate(-45.000000) translate(-7.500000, -7.500000) translate(-1.553301, -1.553301)">
                <path d="M9.05330086,0 C12.0710678,1.20710678 13.2781746,3.62132034 12.0710678,6.03553391 C14.4852814,4.82842712 16.8994949,6.03553391 18.1066017,9.05330086 C16.8994949,12.0710678 14.4852814,13.2781746 12.0710678,12.0710678 C13.2781746,14.4852814 12.0710678,16.8994949 9.05330086,18.1066017 C6.03553391,16.8994949 4.82842713,14.4852814 6.03553391,12.0710678 C3.62132034,13.2781746 1.20710678,12.0710678 3.31141185e-10,9.05330086 C1.20710678,6.03553391 3.62132043,4.82842712 6.03553391,6.03553391 C4.82842721,3.62132034 6.03553391,1.20710678 9.05330086,0 Z" id="outline" fill="#FFFFFF"></path>
                <path d="M9.13141579,0.55186053 C7.27644848,1.20710681 4.82842721,3.62132037 7.32493862,7.29105373 C3.62132043,4.82842715 1.20710681,7.25927191 0.670194185,9.09462513 C1.20710681,10.8892975 3.62132038,13.2781746 7.27644868,10.8892976 C4.82842716,14.4852814 7.27644848,16.899495 9.06912347,17.5168005 C10.8639608,16.899495 13.2781743,14.4852814 10.9782104,10.9875488 C14.4852811,13.2781746 16.8994947,10.8892975 17.6224215,9.08627106 C16.8994947,7.25927191 14.4852811,4.82842715 11.0299694,7.25927194 C13.2781743,3.62132037 10.8639608,1.20710681 9.13141579,0.55186053 Z M9.05330086,7.24264069 C9.05330086,7.84619408 7.84619408,9.05330086 7.24264069,9.05330086 C7.84619408,9.05330086 9.05330086,10.2604076 9.05330086,10.863961 C9.05330086,10.2604076 10.2604076,9.05330086 10.863961,9.05330086 C10.2604076,9.05330086 9.05330086,7.84619408 9.05330086,7.24264069 Z" id="fill" fill="#000000"></path>
            </g>
        </g>
    </g>
</svg>