<?xml version="1.0" encoding="UTF-8" standalone="no"?>
<svg width="21px" height="21px" viewBox="0 0 21 21" version="1.1" xmlns="http://www.w3.org/2000/svg" xmlns:xlink="http://www.w3.org/1999/xlink">
    <!-- Generator: Sketch 3.7.2 (28276) - http://www.bohemiancoding.com/sketch -->
    <title>lilac-21</title>
    <desc>Created with Sketch.</desc>
    <defs></defs>
    <g id="Page-1" stroke="none" stroke-width="1" fill="none" fill-rule="evenodd">
        <g id="lilac-21">
            <g id="Group">
                <path d="M10.5,0 C14,1.4 15.4,4.2 14,7 C16.8,5.6 19.6,7 21,10.5 C19.6,14 16.8,15.4 14,14 C15.4,16.8 14,19.6 10.5,21 C7,19.6 5.6,16.8 7,14 C4.2,15.4 1.4,14 3.8406256e-10,10.5 C1.4,7 4.2000001,5.6 7,7 C5.60000009,4.2 7,1.4 10.5,0 Z" id="outline" fill="#FFFFFF"></path>
                <path d="M10.5905975,0.640046725 C8.43921021,1.40000003 5.6000001,4.20000003 8.49544897,8.45614935 C4.2000001,5.60000003 1.40000004,8.41928886 0.777289858,10.5479278 C1.40000004,12.6293852 4.20000004,15.4 8.43921044,12.6293853 C5.60000004,16.8 8.43921021,19.6 10.518351,20.3159498 C12.5999997,19.6 15.3999997,16.8 12.7325062,12.7433368 C16.7999997,15.4 19.5999997,12.6293852 20.4384487,10.5382388 C19.5999997,8.41928886 16.7999997,5.60000003 12.7925361,8.41928889 C15.3999997,4.20000003 12.5999997,1.40000003 10.5905975,0.640046725 Z M10.5,8.4 C10.5,9.1 9.1,10.5 8.4,10.5 C9.1,10.5 10.5,11.9 10.5,12.6 C10.5,11.9 11.9,10.5 12.6,10.5 C11.9,10.5 10.5,9.1 10.5,8.4 Z" id="fill" fill="#000000"></path>
            </g>
        </g>
    </g>
</svg>