<?xml version="1.0" encoding="UTF-8" standalone="no"?>
<svg width="16px" height="15px" viewBox="0 0 16 15" version="1.1" xmlns="http://www.w3.org/2000/svg" xmlns:xlink="http://www.w3.org/1999/xlink">
    <!-- Generator: Sketch 3.7.2 (28276) - http://www.bohemiancoding.com/sketch -->
    <title>icon-lilac</title>
    <desc>Created with Sketch.</desc>
    <defs></defs>
    <g id="Page-1" stroke="none" stroke-width="1" fill="none" fill-rule="evenodd">
        <path d="M7.81783819,0.310213579 C11.5137104,1.78077402 10.375003,4.78054455 9.63631452,6.10842912 C12.3570099,4.44254985 14.7986978,5.2600678 15.4445862,7.5884383 C14.0477934,10.9254544 10.8885417,9.83138549 9.63152266,9.22987235 C11.2983468,11.9074613 10.5914465,14.0698243 8.18370666,15.1373692 C4.51274532,13.7556539 5.66044253,10.6781743 6.38484321,9.33249234 C3.69545009,11.0426322 1.54544469,10.4794337 0.444586207,7.90328361 C1.84961293,4.5466209 5.10908866,5.64537367 6.37989613,6.23301742 C4.7252271,3.57934052 5.59970742,1.64059531 7.81783819,0.310213579 Z M7.93817457,6.46316158 C7.62218191,7.1787007 7.25840566,7.63561448 6.7136794,7.89073029 C7.33109342,8.16460859 7.88627402,8.46605695 8.15981487,9.12790701 C8.43328822,8.43378277 8.99251828,7.98103319 9.55323315,7.63331978 C8.90687226,7.43064444 8.48512128,7.10905004 7.93817457,6.46316158 L7.93817457,6.46316158 Z" id="icon-lilac" fill="#000000" transform="translate(7.944586, 7.723791) rotate(-14.000000) translate(-7.944586, -7.723791) "></path>
    </g>
</svg>